<svg xmlns="http://www.w3.org/2000/svg" xmlns:xlink="http://www.w3.org/1999/xlink" width="500" zoomAndPan="magnify" viewBox="0 0 375 374.999991" height="500" preserveAspectRatio="xMidYMid meet" version="1.0"><defs><g/><clipPath id="c7c5baa010"><path d="M 87 94 L 192 94 L 192 286.5 L 87 286.5 Z M 87 94 " clip-rule="nonzero"/></clipPath></defs><path fill="#ffffff" d="M 228.097656 97.550781 L 228.164062 97.546875 C 223.632812 92.75 218.378906 87.570312 212.296875 82.015625 C 169.675781 43.101562 169.496094 15.042969 170.839844 0 C 170.839844 0 125.246094 35.207031 183.480469 94.617188 L 183.410156 94.621094 C 187.949219 99.417969 193.195312 104.597656 199.28125 110.152344 C 241.898438 149.066406 242.078125 177.128906 240.734375 192.167969 C 240.734375 192.167969 286.328125 156.960938 228.097656 97.550781 Z M 228.097656 97.550781 " fill-opacity="1" fill-rule="nonzero"/><path fill="#ffffff" d="M 206.285156 128.765625 L 206.355469 128.757812 C 201.816406 123.960938 196.570312 118.78125 190.480469 113.226562 C 147.863281 74.3125 147.683594 46.253906 149.027344 31.210938 C 149.027344 31.210938 103.433594 66.417969 161.664062 125.832031 L 161.597656 125.835938 C 166.128906 130.632812 171.382812 135.8125 177.46875 141.367188 C 220.085938 180.28125 220.269531 208.339844 218.925781 223.382812 C 218.921875 223.378906 264.519531 188.175781 206.285156 128.765625 Z M 206.285156 128.765625 " fill-opacity="1" fill-rule="nonzero"/><path fill="#ffffff" d="M 183.800781 160.570312 L 183.867188 160.566406 C 179.335938 155.769531 174.085938 150.589844 168 145.035156 C 125.378906 106.121094 125.199219 78.0625 126.546875 63.019531 C 126.546875 63.019531 80.953125 98.226562 139.183594 157.636719 L 139.117188 157.640625 C 143.648438 162.4375 148.898438 167.617188 154.984375 173.171875 C 197.605469 212.085938 197.785156 240.148438 196.4375 255.1875 C 196.4375 255.191406 242.035156 219.984375 183.800781 160.570312 Z M 183.800781 160.570312 " fill-opacity="1" fill-rule="nonzero"/><g clip-path="url(#c7c5baa010)"><path fill="#ffffff" d="M 161.988281 191.785156 L 162.058594 191.78125 C 157.523438 186.984375 152.273438 181.804688 146.1875 176.25 C 103.566406 137.335938 103.386719 109.277344 104.730469 94.234375 C 104.730469 94.234375 59.136719 129.441406 117.371094 188.855469 L 117.300781 188.859375 C 121.832031 193.65625 127.085938 198.835938 133.167969 204.394531 C 175.789062 243.304688 175.96875 271.363281 174.628906 286.40625 C 174.628906 286.402344 220.222656 251.195312 161.988281 191.785156 Z M 161.988281 191.785156 " fill-opacity="1" fill-rule="nonzero"/></g><g fill="#ffffff" fill-opacity="1"><g transform="translate(-1.440283, 320.254609)"><g><path d="M 13.671875 -25.578125 C 16.273438 -25.578125 18.597656 -25.035156 20.640625 -23.953125 C 22.691406 -22.867188 24.285156 -21.359375 25.421875 -19.421875 C 26.554688 -17.484375 27.125 -15.273438 27.125 -12.796875 C 27.125 -10.304688 26.539062 -8.09375 25.375 -6.15625 C 24.21875 -4.21875 22.601562 -2.707031 20.53125 -1.625 C 18.46875 -0.539062 16.109375 0 13.453125 0 L 2.8125 0 L 2.8125 -25.578125 Z M 13.8125 -4.859375 C 15.226562 -4.859375 16.5 -5.191406 17.625 -5.859375 C 18.757812 -6.535156 19.644531 -7.46875 20.28125 -8.65625 C 20.914062 -9.851562 21.234375 -11.21875 21.234375 -12.75 C 21.234375 -14.289062 20.894531 -15.671875 20.21875 -16.890625 C 19.550781 -18.109375 18.640625 -19.050781 17.484375 -19.71875 C 16.328125 -20.382812 15.019531 -20.71875 13.5625 -20.71875 L 8.59375 -20.71875 L 8.59375 -4.859375 Z M 13.8125 -4.859375 "/></g></g></g><g fill="#ffffff" fill-opacity="1"><g transform="translate(28.522511, 320.254609)"><g><path d="M 2.8125 0 L 2.8125 -25.578125 L 22.296875 -25.578125 L 22.296875 -20.796875 L 8.59375 -20.796875 L 8.59375 -15.234375 L 20.90625 -15.234375 L 20.90625 -10.453125 L 8.59375 -10.453125 L 8.59375 -4.78125 L 22.703125 -4.78125 L 22.703125 0 Z M 2.8125 0 "/></g></g></g><g fill="#ffffff" fill-opacity="1"><g transform="translate(54.794859, 320.254609)"><g><path d="M 2.078125 -9.3125 L 2.078125 -13.046875 L 11.515625 -13.046875 L 11.515625 -9.3125 Z M 2.078125 -9.3125 "/></g></g></g><g fill="#ffffff" fill-opacity="1"><g transform="translate(70.25166, 320.254609)"><g><path d="M 13.078125 -15.015625 C 15.328125 -14.722656 17.113281 -13.96875 18.4375 -12.75 C 19.769531 -11.53125 20.4375 -9.945312 20.4375 -8 C 20.4375 -6.394531 20.015625 -4.960938 19.171875 -3.703125 C 18.328125 -2.453125 17.128906 -1.476562 15.578125 -0.78125 C 14.035156 -0.09375 12.226562 0.25 10.15625 0.25 C 8.375 0.25 6.597656 -0.0195312 4.828125 -0.5625 C 3.066406 -1.113281 1.578125 -1.835938 0.359375 -2.734375 L 2.59375 -7.015625 C 3.644531 -6.140625 4.78125 -5.46875 6 -5 C 7.21875 -4.539062 8.457031 -4.3125 9.71875 -4.3125 C 11.332031 -4.3125 12.578125 -4.632812 13.453125 -5.28125 C 14.328125 -5.925781 14.765625 -6.820312 14.765625 -7.96875 C 14.765625 -9.113281 14.328125 -9.984375 13.453125 -10.578125 C 12.578125 -11.171875 11.320312 -11.46875 9.6875 -11.46875 L 5.5625 -11.46875 L 5.5625 -14.765625 L 11.953125 -20.9375 L 1.6875 -20.9375 L 1.640625 -25.625 L 19.15625 -25.625 L 19.15625 -22.140625 L 11.765625 -15.203125 Z M 13.078125 -15.015625 "/></g></g></g><g fill="#ffffff" fill-opacity="1"><g transform="translate(93.966278, 320.254609)"><g/></g></g><g fill="#ffffff" fill-opacity="1"><g transform="translate(105.696105, 320.254609)"><g><path d="M 13.671875 -25.578125 C 16.273438 -25.578125 18.597656 -25.035156 20.640625 -23.953125 C 22.691406 -22.867188 24.285156 -21.359375 25.421875 -19.421875 C 26.554688 -17.484375 27.125 -15.273438 27.125 -12.796875 C 27.125 -10.304688 26.539062 -8.09375 25.375 -6.15625 C 24.21875 -4.21875 22.601562 -2.707031 20.53125 -1.625 C 18.46875 -0.539062 16.109375 0 13.453125 0 L 2.8125 0 L 2.8125 -25.578125 Z M 13.8125 -4.859375 C 15.226562 -4.859375 16.5 -5.191406 17.625 -5.859375 C 18.757812 -6.535156 19.644531 -7.46875 20.28125 -8.65625 C 20.914062 -9.851562 21.234375 -11.21875 21.234375 -12.75 C 21.234375 -14.289062 20.894531 -15.671875 20.21875 -16.890625 C 19.550781 -18.109375 18.640625 -19.050781 17.484375 -19.71875 C 16.328125 -20.382812 15.019531 -20.71875 13.5625 -20.71875 L 8.59375 -20.71875 L 8.59375 -4.859375 Z M 13.8125 -4.859375 "/></g></g></g><g fill="#ffffff" fill-opacity="1"><g transform="translate(135.658898, 320.254609)"><g><path d="M 2.8125 0 L 2.8125 -25.578125 L 22.296875 -25.578125 L 22.296875 -20.796875 L 8.59375 -20.796875 L 8.59375 -15.234375 L 20.90625 -15.234375 L 20.90625 -10.453125 L 8.59375 -10.453125 L 8.59375 -4.78125 L 22.703125 -4.78125 L 22.703125 0 Z M 2.8125 0 "/></g></g></g><g fill="#ffffff" fill-opacity="1"><g transform="translate(161.931247, 320.254609)"><g><path d="M 10.046875 0 L 0 -25.578125 L 6.21875 -25.578125 L 13.1875 -6.28125 L 20.203125 -25.578125 L 26.171875 -25.578125 L 16 0 Z M 10.046875 0 "/></g></g></g><g fill="#ffffff" fill-opacity="1"><g transform="translate(189.957471, 320.254609)"><g><path d="M 2.8125 0 L 2.8125 -25.578125 L 22.296875 -25.578125 L 22.296875 -20.796875 L 8.59375 -20.796875 L 8.59375 -15.234375 L 20.90625 -15.234375 L 20.90625 -10.453125 L 8.59375 -10.453125 L 8.59375 -4.78125 L 22.703125 -4.78125 L 22.703125 0 Z M 2.8125 0 "/></g></g></g><g fill="#ffffff" fill-opacity="1"><g transform="translate(216.229808, 320.254609)"><g><path d="M 2.8125 0 L 2.8125 -25.578125 L 8.59375 -25.578125 L 8.59375 -5.046875 L 19.546875 -5.046875 L 19.546875 0 Z M 2.8125 0 "/></g></g></g><g fill="#ffffff" fill-opacity="1"><g transform="translate(238.263642, 320.254609)"><g><path d="M 14.734375 -25.984375 C 17.285156 -25.984375 19.609375 -25.410156 21.703125 -24.265625 C 23.804688 -23.117188 25.457031 -21.539062 26.65625 -19.53125 C 27.863281 -17.519531 28.46875 -15.285156 28.46875 -12.828125 C 28.46875 -10.367188 27.863281 -8.125 26.65625 -6.09375 C 25.457031 -4.070312 23.804688 -2.484375 21.703125 -1.328125 C 19.609375 -0.171875 17.285156 0.40625 14.734375 0.40625 C 12.171875 0.40625 9.84375 -0.171875 7.75 -1.328125 C 5.65625 -2.484375 4.003906 -4.066406 2.796875 -6.078125 C 1.585938 -8.085938 0.984375 -10.335938 0.984375 -12.828125 C 0.984375 -15.285156 1.585938 -17.519531 2.796875 -19.53125 C 4.003906 -21.539062 5.648438 -23.117188 7.734375 -24.265625 C 9.816406 -25.410156 12.148438 -25.984375 14.734375 -25.984375 Z M 14.796875 -20.9375 C 13.390625 -20.9375 12.078125 -20.578125 10.859375 -19.859375 C 9.640625 -19.140625 8.675781 -18.160156 7.96875 -16.921875 C 7.257812 -15.679688 6.90625 -14.316406 6.90625 -12.828125 C 6.90625 -11.316406 7.265625 -9.9375 7.984375 -8.6875 C 8.703125 -7.445312 9.664062 -6.460938 10.875 -5.734375 C 12.082031 -5.003906 13.390625 -4.640625 14.796875 -4.640625 C 16.210938 -4.640625 17.507812 -5 18.6875 -5.71875 C 19.875 -6.4375 20.8125 -7.421875 21.5 -8.671875 C 22.195312 -9.929688 22.546875 -11.316406 22.546875 -12.828125 C 22.546875 -14.316406 22.195312 -15.679688 21.5 -16.921875 C 20.8125 -18.160156 19.875 -19.140625 18.6875 -19.859375 C 17.507812 -20.578125 16.210938 -20.9375 14.796875 -20.9375 Z M 14.796875 -20.9375 "/></g></g></g><g fill="#ffffff" fill-opacity="1"><g transform="translate(269.57836, 320.254609)"><g><path d="M 13.671875 -25.578125 C 16.929688 -25.578125 19.453125 -24.800781 21.234375 -23.25 C 23.015625 -21.707031 23.90625 -19.523438 23.90625 -16.703125 C 23.90625 -13.734375 23.007812 -11.425781 21.21875 -9.78125 C 19.425781 -8.132812 16.910156 -7.3125 13.671875 -7.3125 L 8.59375 -7.3125 L 8.59375 0 L 2.8125 0 L 2.8125 -25.578125 Z M 13.375 -12.140625 C 15.007812 -12.140625 16.257812 -12.507812 17.125 -13.25 C 17.988281 -13.988281 18.421875 -15.078125 18.421875 -16.515625 C 18.421875 -17.929688 17.988281 -19 17.125 -19.71875 C 16.257812 -20.4375 15.007812 -20.796875 13.375 -20.796875 L 8.59375 -20.796875 L 8.59375 -12.140625 Z M 13.375 -12.140625 "/></g></g></g><g fill="#ffffff" fill-opacity="1"><g transform="translate(296.216084, 320.254609)"><g><path d="M 2.8125 0 L 2.8125 -25.578125 L 22.296875 -25.578125 L 22.296875 -20.796875 L 8.59375 -20.796875 L 8.59375 -15.234375 L 20.90625 -15.234375 L 20.90625 -10.453125 L 8.59375 -10.453125 L 8.59375 -4.78125 L 22.703125 -4.78125 L 22.703125 0 Z M 2.8125 0 "/></g></g></g><g fill="#ffffff" fill-opacity="1"><g transform="translate(322.488421, 320.254609)"><g><path d="M 25.078125 0 L 18.53125 0 L 14.46875 -7.3125 L 8.59375 -7.3125 L 8.59375 0 L 2.8125 0 L 2.8125 -25.578125 L 13.921875 -25.578125 C 17.265625 -25.578125 19.847656 -24.800781 21.671875 -23.25 C 23.492188 -21.707031 24.40625 -19.523438 24.40625 -16.703125 C 24.40625 -14.722656 24 -13.03125 23.1875 -11.625 C 22.375 -10.226562 21.1875 -9.164062 19.625 -8.4375 Z M 8.59375 -20.796875 L 8.59375 -12.140625 L 13.921875 -12.140625 C 15.535156 -12.140625 16.773438 -12.507812 17.640625 -13.25 C 18.503906 -13.988281 18.9375 -15.078125 18.9375 -16.515625 C 18.9375 -17.929688 18.503906 -19 17.640625 -19.71875 C 16.773438 -20.4375 15.535156 -20.796875 13.921875 -20.796875 Z M 8.59375 -20.796875 "/></g></g></g><g fill="#ffffff" fill-opacity="1"><g transform="translate(350.806962, 320.254609)"><g><path d="M 19.65625 -18.453125 C 18.34375 -19.253906 16.945312 -19.894531 15.46875 -20.375 C 14 -20.851562 12.738281 -21.09375 11.6875 -21.09375 C 10.695312 -21.09375 9.90625 -20.90625 9.3125 -20.53125 C 8.726562 -20.164062 8.4375 -19.632812 8.4375 -18.9375 C 8.4375 -18.03125 8.859375 -17.335938 9.703125 -16.859375 C 10.546875 -16.390625 11.84375 -15.898438 13.59375 -15.390625 C 15.351562 -14.878906 16.796875 -14.363281 17.921875 -13.84375 C 19.054688 -13.332031 20.023438 -12.566406 20.828125 -11.546875 C 21.628906 -10.523438 22.03125 -9.171875 22.03125 -7.484375 C 22.03125 -5.859375 21.597656 -4.453125 20.734375 -3.265625 C 19.867188 -2.085938 18.679688 -1.191406 17.171875 -0.578125 C 15.660156 0.0234375 13.945312 0.328125 12.03125 0.328125 C 9.957031 0.328125 7.921875 -0.0351562 5.921875 -0.765625 C 3.921875 -1.492188 2.191406 -2.492188 0.734375 -3.765625 L 3.03125 -8.484375 C 4.320312 -7.304688 5.804688 -6.363281 7.484375 -5.65625 C 9.171875 -4.957031 10.707031 -4.609375 12.09375 -4.609375 C 13.289062 -4.609375 14.222656 -4.828125 14.890625 -5.265625 C 15.554688 -5.703125 15.890625 -6.332031 15.890625 -7.15625 C 15.890625 -7.820312 15.664062 -8.363281 15.21875 -8.78125 C 14.769531 -9.207031 14.195312 -9.554688 13.5 -9.828125 C 12.8125 -10.097656 11.859375 -10.40625 10.640625 -10.75 C 8.878906 -11.226562 7.441406 -11.710938 6.328125 -12.203125 C 5.222656 -12.691406 4.269531 -13.4375 3.46875 -14.4375 C 2.664062 -15.4375 2.265625 -16.765625 2.265625 -18.421875 C 2.265625 -19.953125 2.675781 -21.296875 3.5 -22.453125 C 4.332031 -23.609375 5.488281 -24.5 6.96875 -25.125 C 8.457031 -25.75 10.191406 -26.0625 12.171875 -26.0625 C 13.921875 -26.0625 15.648438 -25.800781 17.359375 -25.28125 C 19.066406 -24.769531 20.578125 -24.09375 21.890625 -23.25 Z M 19.65625 -18.453125 "/></g></g></g><g fill="#ffffff" fill-opacity="1"><g transform="translate(52.817801, 364.008492)"><g><path d="M 1.484375 0 L 1.484375 -15.296875 L 6.703125 -15.296875 C 8.503906 -15.296875 9.984375 -14.976562 11.140625 -14.34375 C 12.296875 -13.71875 13.15625 -12.832031 13.71875 -11.6875 C 14.28125 -10.539062 14.5625 -9.195312 14.5625 -7.65625 C 14.5625 -6.101562 14.28125 -4.753906 13.71875 -3.609375 C 13.15625 -2.472656 12.296875 -1.585938 11.140625 -0.953125 C 9.984375 -0.316406 8.503906 0 6.703125 0 Z M 4.28125 -2.40625 L 6.578125 -2.40625 C 7.859375 -2.40625 8.867188 -2.613281 9.609375 -3.03125 C 10.359375 -3.445312 10.890625 -4.039062 11.203125 -4.8125 C 11.523438 -5.59375 11.6875 -6.539062 11.6875 -7.65625 C 11.6875 -8.75 11.523438 -9.6875 11.203125 -10.46875 C 10.890625 -11.257812 10.359375 -11.863281 9.609375 -12.28125 C 8.867188 -12.707031 7.859375 -12.921875 6.578125 -12.921875 L 4.28125 -12.921875 Z M 4.28125 -2.40625 "/></g></g></g><g fill="#ffffff" fill-opacity="1"><g transform="translate(71.015869, 364.008492)"><g><path d="M 2.921875 -12.53125 C 2.421875 -12.53125 2.003906 -12.679688 1.671875 -12.984375 C 1.347656 -13.285156 1.1875 -13.671875 1.1875 -14.140625 C 1.1875 -14.609375 1.347656 -14.988281 1.671875 -15.28125 C 2.003906 -15.582031 2.421875 -15.734375 2.921875 -15.734375 C 3.429688 -15.734375 3.847656 -15.582031 4.171875 -15.28125 C 4.503906 -14.988281 4.671875 -14.609375 4.671875 -14.140625 C 4.671875 -13.671875 4.503906 -13.285156 4.171875 -12.984375 C 3.847656 -12.679688 3.429688 -12.53125 2.921875 -12.53125 Z M 1.53125 0 L 1.53125 -10.84375 L 4.328125 -10.84375 L 4.328125 0 Z M 1.53125 0 "/></g></g></g><g fill="#ffffff" fill-opacity="1"><g transform="translate(79.515323, 364.008492)"><g><path d="M 6.015625 -3.234375 C 5.484375 -3.234375 4.992188 -3.289062 4.546875 -3.40625 L 3.734375 -2.59375 C 3.984375 -2.46875 4.316406 -2.359375 4.734375 -2.265625 C 5.160156 -2.179688 5.847656 -2.097656 6.796875 -2.015625 C 8.242188 -1.878906 9.296875 -1.535156 9.953125 -0.984375 C 10.609375 -0.429688 10.9375 0.332031 10.9375 1.3125 C 10.9375 1.945312 10.757812 2.550781 10.40625 3.125 C 10.050781 3.707031 9.507812 4.175781 8.78125 4.53125 C 8.050781 4.894531 7.117188 5.078125 5.984375 5.078125 C 4.441406 5.078125 3.195312 4.785156 2.25 4.203125 C 1.300781 3.628906 0.828125 2.769531 0.828125 1.625 C 0.828125 0.644531 1.300781 -0.203125 2.25 -0.921875 C 1.957031 -1.046875 1.707031 -1.179688 1.5 -1.328125 C 1.289062 -1.472656 1.101562 -1.628906 0.9375 -1.796875 L 0.9375 -2.296875 L 2.84375 -4.3125 C 2 -5.050781 1.578125 -6.003906 1.578125 -7.171875 C 1.578125 -7.898438 1.753906 -8.5625 2.109375 -9.15625 C 2.460938 -9.757812 2.96875 -10.234375 3.625 -10.578125 C 4.28125 -10.929688 5.078125 -11.109375 6.015625 -11.109375 C 6.617188 -11.109375 7.1875 -11.019531 7.71875 -10.84375 L 11.828125 -10.84375 L 11.828125 -9.140625 L 9.96875 -9 C 10.257812 -8.445312 10.40625 -7.835938 10.40625 -7.171875 C 10.40625 -6.441406 10.226562 -5.773438 9.875 -5.171875 C 9.53125 -4.578125 9.023438 -4.101562 8.359375 -3.75 C 7.691406 -3.40625 6.910156 -3.234375 6.015625 -3.234375 Z M 6.015625 -5.375 C 6.578125 -5.375 7.046875 -5.523438 7.421875 -5.828125 C 7.796875 -6.140625 7.984375 -6.578125 7.984375 -7.140625 C 7.984375 -7.710938 7.796875 -8.148438 7.421875 -8.453125 C 7.046875 -8.765625 6.578125 -8.921875 6.015625 -8.921875 C 5.410156 -8.921875 4.925781 -8.765625 4.5625 -8.453125 C 4.195312 -8.148438 4.015625 -7.710938 4.015625 -7.140625 C 4.015625 -6.578125 4.195312 -6.140625 4.5625 -5.828125 C 4.925781 -5.523438 5.410156 -5.375 6.015625 -5.375 Z M 3.390625 1.328125 C 3.390625 1.867188 3.640625 2.273438 4.140625 2.546875 C 4.640625 2.816406 5.253906 2.953125 5.984375 2.953125 C 6.679688 2.953125 7.25 2.804688 7.6875 2.515625 C 8.125 2.234375 8.34375 1.851562 8.34375 1.375 C 8.34375 0.976562 8.203125 0.648438 7.921875 0.390625 C 7.640625 0.128906 7.078125 -0.03125 6.234375 -0.09375 C 5.628906 -0.132812 5.070312 -0.195312 4.5625 -0.28125 C 4.144531 -0.0507812 3.84375 0.195312 3.65625 0.46875 C 3.476562 0.75 3.390625 1.035156 3.390625 1.328125 Z M 3.390625 1.328125 "/></g></g></g><g fill="#ffffff" fill-opacity="1"><g transform="translate(94.611586, 364.008492)"><g><path d="M 2.921875 -12.53125 C 2.421875 -12.53125 2.003906 -12.679688 1.671875 -12.984375 C 1.347656 -13.285156 1.1875 -13.671875 1.1875 -14.140625 C 1.1875 -14.609375 1.347656 -14.988281 1.671875 -15.28125 C 2.003906 -15.582031 2.421875 -15.734375 2.921875 -15.734375 C 3.429688 -15.734375 3.847656 -15.582031 4.171875 -15.28125 C 4.503906 -14.988281 4.671875 -14.609375 4.671875 -14.140625 C 4.671875 -13.671875 4.503906 -13.285156 4.171875 -12.984375 C 3.847656 -12.679688 3.429688 -12.53125 2.921875 -12.53125 Z M 1.53125 0 L 1.53125 -10.84375 L 4.328125 -10.84375 L 4.328125 0 Z M 1.53125 0 "/></g></g></g><g fill="#ffffff" fill-opacity="1"><g transform="translate(103.111039, 364.008492)"><g><path d="M 6.25 0 C 5.113281 0 4.203125 -0.273438 3.515625 -0.828125 C 2.828125 -1.378906 2.484375 -2.363281 2.484375 -3.78125 L 2.484375 -8.5 L 0.640625 -8.5 L 0.640625 -10.84375 L 2.484375 -10.84375 L 2.8125 -13.75 L 5.296875 -13.75 L 5.296875 -10.84375 L 8.21875 -10.84375 L 8.21875 -8.5 L 5.296875 -8.5 L 5.296875 -3.765625 C 5.296875 -3.234375 5.40625 -2.867188 5.625 -2.671875 C 5.851562 -2.472656 6.242188 -2.375 6.796875 -2.375 L 8.15625 -2.375 L 8.15625 0 Z M 6.25 0 "/></g></g></g><g fill="#ffffff" fill-opacity="1"><g transform="translate(114.974424, 364.008492)"><g><path d="M 5.15625 0.265625 C 4.226562 0.265625 3.460938 0.113281 2.859375 -0.1875 C 2.265625 -0.488281 1.820312 -0.882812 1.53125 -1.375 C 1.238281 -1.875 1.09375 -2.421875 1.09375 -3.015625 C 1.09375 -4.023438 1.484375 -4.84375 2.265625 -5.46875 C 3.054688 -6.09375 4.238281 -6.40625 5.8125 -6.40625 L 8.5625 -6.40625 L 8.5625 -6.671875 C 8.5625 -7.410156 8.347656 -7.953125 7.921875 -8.296875 C 7.503906 -8.648438 6.984375 -8.828125 6.359375 -8.828125 C 5.796875 -8.828125 5.300781 -8.691406 4.875 -8.421875 C 4.445312 -8.148438 4.1875 -7.753906 4.09375 -7.234375 L 1.359375 -7.234375 C 1.429688 -8.023438 1.695312 -8.710938 2.15625 -9.296875 C 2.613281 -9.878906 3.207031 -10.328125 3.9375 -10.640625 C 4.664062 -10.953125 5.484375 -11.109375 6.390625 -11.109375 C 7.929688 -11.109375 9.144531 -10.71875 10.03125 -9.9375 C 10.914062 -9.164062 11.359375 -8.078125 11.359375 -6.671875 L 11.359375 0 L 8.984375 0 L 8.71875 -1.75 C 8.394531 -1.164062 7.945312 -0.679688 7.375 -0.296875 C 6.800781 0.078125 6.0625 0.265625 5.15625 0.265625 Z M 5.796875 -1.921875 C 6.597656 -1.921875 7.21875 -2.179688 7.65625 -2.703125 C 8.101562 -3.234375 8.382812 -3.882812 8.5 -4.65625 L 6.125 -4.65625 C 5.375 -4.65625 4.835938 -4.519531 4.515625 -4.25 C 4.203125 -3.976562 4.046875 -3.644531 4.046875 -3.25 C 4.046875 -2.832031 4.203125 -2.503906 4.515625 -2.265625 C 4.835938 -2.035156 5.265625 -1.921875 5.796875 -1.921875 Z M 5.796875 -1.921875 "/></g></g></g><g fill="#ffffff" fill-opacity="1"><g transform="translate(130.245436, 364.008492)"><g><path d="M 1.421875 0 L 1.421875 -15.734375 L 4.21875 -15.734375 L 4.21875 0 Z M 1.421875 0 "/></g></g></g><g fill="#ffffff" fill-opacity="1"><g transform="translate(138.570137, 364.008492)"><g/></g></g><g fill="#ffffff" fill-opacity="1"><g transform="translate(146.436124, 364.008492)"><g><path d="M 5.046875 0 L 5.046875 -13.046875 L 0.59375 -13.046875 L 0.59375 -15.296875 L 12.328125 -15.296875 L 12.328125 -13.046875 L 7.84375 -13.046875 L 7.84375 0 Z M 5.046875 0 "/></g></g></g><g fill="#ffffff" fill-opacity="1"><g transform="translate(162.012945, 364.008492)"><g><path d="M 6.6875 0.265625 C 5.59375 0.265625 4.625 0.03125 3.78125 -0.4375 C 2.9375 -0.90625 2.273438 -1.5625 1.796875 -2.40625 C 1.316406 -3.25 1.078125 -4.222656 1.078125 -5.328125 C 1.078125 -6.453125 1.3125 -7.453125 1.78125 -8.328125 C 2.25 -9.203125 2.898438 -9.882812 3.734375 -10.375 C 4.578125 -10.863281 5.566406 -11.109375 6.703125 -11.109375 C 7.773438 -11.109375 8.71875 -10.875 9.53125 -10.40625 C 10.34375 -9.9375 10.976562 -9.296875 11.4375 -8.484375 C 11.894531 -7.679688 12.125 -6.785156 12.125 -5.796875 C 12.125 -5.628906 12.117188 -5.457031 12.109375 -5.28125 C 12.109375 -5.113281 12.101562 -4.9375 12.09375 -4.75 L 3.84375 -4.75 C 3.90625 -3.894531 4.203125 -3.226562 4.734375 -2.75 C 5.265625 -2.269531 5.910156 -2.03125 6.671875 -2.03125 C 7.234375 -2.03125 7.707031 -2.15625 8.09375 -2.40625 C 8.476562 -2.664062 8.769531 -3 8.96875 -3.40625 L 11.796875 -3.40625 C 11.597656 -2.71875 11.257812 -2.09375 10.78125 -1.53125 C 10.3125 -0.976562 9.726562 -0.539062 9.03125 -0.21875 C 8.34375 0.101562 7.5625 0.265625 6.6875 0.265625 Z M 6.703125 -8.828125 C 6.023438 -8.828125 5.421875 -8.632812 4.890625 -8.25 C 4.367188 -7.863281 4.035156 -7.28125 3.890625 -6.5 L 9.296875 -6.5 C 9.242188 -7.207031 8.976562 -7.769531 8.5 -8.1875 C 8.019531 -8.613281 7.421875 -8.828125 6.703125 -8.828125 Z M 6.703125 -8.828125 "/></g></g></g><g fill="#ffffff" fill-opacity="1"><g transform="translate(177.742677, 364.008492)"><g><path d="M 6.734375 0.265625 C 5.628906 0.265625 4.648438 0.0234375 3.796875 -0.453125 C 2.953125 -0.941406 2.285156 -1.613281 1.796875 -2.46875 C 1.316406 -3.332031 1.078125 -4.316406 1.078125 -5.421875 C 1.078125 -6.523438 1.316406 -7.503906 1.796875 -8.359375 C 2.285156 -9.222656 2.953125 -9.894531 3.796875 -10.375 C 4.648438 -10.863281 5.628906 -11.109375 6.734375 -11.109375 C 8.117188 -11.109375 9.285156 -10.742188 10.234375 -10.015625 C 11.179688 -9.296875 11.785156 -8.300781 12.046875 -7.03125 L 9.09375 -7.03125 C 8.945312 -7.5625 8.65625 -7.972656 8.21875 -8.265625 C 7.789062 -8.566406 7.285156 -8.71875 6.703125 -8.71875 C 5.929688 -8.71875 5.273438 -8.425781 4.734375 -7.84375 C 4.203125 -7.257812 3.9375 -6.453125 3.9375 -5.421875 C 3.9375 -4.390625 4.203125 -3.582031 4.734375 -3 C 5.273438 -2.414062 5.929688 -2.125 6.703125 -2.125 C 7.285156 -2.125 7.789062 -2.269531 8.21875 -2.5625 C 8.65625 -2.851562 8.945312 -3.265625 9.09375 -3.796875 L 12.046875 -3.796875 C 11.785156 -2.578125 11.179688 -1.59375 10.234375 -0.84375 C 9.285156 -0.101562 8.117188 0.265625 6.734375 0.265625 Z M 6.734375 0.265625 "/></g></g></g><g fill="#ffffff" fill-opacity="1"><g transform="translate(193.516102, 364.008492)"><g><path d="M 1.421875 0 L 1.421875 -15.734375 L 4.21875 -15.734375 L 4.21875 -9.1875 C 4.582031 -9.78125 5.070312 -10.25 5.6875 -10.59375 C 6.3125 -10.9375 7.023438 -11.109375 7.828125 -11.109375 C 9.171875 -11.109375 10.207031 -10.679688 10.9375 -9.828125 C 11.675781 -8.984375 12.046875 -7.75 12.046875 -6.125 L 12.046875 0 L 9.265625 0 L 9.265625 -5.859375 C 9.265625 -6.785156 9.078125 -7.5 8.703125 -8 C 8.335938 -8.5 7.753906 -8.75 6.953125 -8.75 C 6.160156 -8.75 5.503906 -8.46875 4.984375 -7.90625 C 4.472656 -7.351562 4.21875 -6.582031 4.21875 -5.59375 L 4.21875 0 Z M 1.421875 0 "/></g></g></g><g fill="#ffffff" fill-opacity="1"><g transform="translate(209.464278, 364.008492)"><g><path d="M 1.421875 0 L 1.421875 -10.84375 L 3.890625 -10.84375 L 4.109375 -9 C 4.441406 -9.644531 4.925781 -10.15625 5.5625 -10.53125 C 6.195312 -10.914062 6.941406 -11.109375 7.796875 -11.109375 C 9.140625 -11.109375 10.179688 -10.679688 10.921875 -9.828125 C 11.671875 -8.984375 12.046875 -7.75 12.046875 -6.125 L 12.046875 0 L 9.25 0 L 9.25 -5.859375 C 9.25 -6.785156 9.054688 -7.5 8.671875 -8 C 8.296875 -8.5 7.707031 -8.75 6.90625 -8.75 C 6.125 -8.75 5.476562 -8.46875 4.96875 -7.90625 C 4.46875 -7.351562 4.21875 -6.582031 4.21875 -5.59375 L 4.21875 0 Z M 1.421875 0 "/></g></g></g><g fill="#ffffff" fill-opacity="1"><g transform="translate(225.412454, 364.008492)"><g><path d="M 6.625 0.265625 C 5.570312 0.265625 4.625 0.0234375 3.78125 -0.453125 C 2.945312 -0.941406 2.285156 -1.609375 1.796875 -2.453125 C 1.316406 -3.304688 1.078125 -4.296875 1.078125 -5.421875 C 1.078125 -6.546875 1.320312 -7.53125 1.8125 -8.375 C 2.3125 -9.226562 2.976562 -9.894531 3.8125 -10.375 C 4.65625 -10.863281 5.597656 -11.109375 6.640625 -11.109375 C 7.679688 -11.109375 8.617188 -10.863281 9.453125 -10.375 C 10.296875 -9.894531 10.957031 -9.226562 11.4375 -8.375 C 11.925781 -7.53125 12.171875 -6.546875 12.171875 -5.421875 C 12.171875 -4.296875 11.925781 -3.304688 11.4375 -2.453125 C 10.957031 -1.609375 10.289062 -0.941406 9.4375 -0.453125 C 8.59375 0.0234375 7.65625 0.265625 6.625 0.265625 Z M 6.625 -2.171875 C 7.351562 -2.171875 7.984375 -2.441406 8.515625 -2.984375 C 9.054688 -3.523438 9.328125 -4.335938 9.328125 -5.421875 C 9.328125 -6.492188 9.054688 -7.300781 8.515625 -7.84375 C 7.984375 -8.394531 7.359375 -8.671875 6.640625 -8.671875 C 5.898438 -8.671875 5.265625 -8.394531 4.734375 -7.84375 C 4.203125 -7.300781 3.9375 -6.492188 3.9375 -5.421875 C 3.9375 -4.335938 4.203125 -3.523438 4.734375 -2.984375 C 5.265625 -2.441406 5.894531 -2.171875 6.625 -2.171875 Z M 6.625 -2.171875 "/></g></g></g><g fill="#ffffff" fill-opacity="1"><g transform="translate(241.316936, 364.008492)"><g><path d="M 1.421875 0 L 1.421875 -15.734375 L 4.21875 -15.734375 L 4.21875 0 Z M 1.421875 0 "/></g></g></g><g fill="#ffffff" fill-opacity="1"><g transform="translate(249.641631, 364.008492)"><g><path d="M 6.625 0.265625 C 5.570312 0.265625 4.625 0.0234375 3.78125 -0.453125 C 2.945312 -0.941406 2.285156 -1.609375 1.796875 -2.453125 C 1.316406 -3.304688 1.078125 -4.296875 1.078125 -5.421875 C 1.078125 -6.546875 1.320312 -7.53125 1.8125 -8.375 C 2.3125 -9.226562 2.976562 -9.894531 3.8125 -10.375 C 4.65625 -10.863281 5.597656 -11.109375 6.640625 -11.109375 C 7.679688 -11.109375 8.617188 -10.863281 9.453125 -10.375 C 10.296875 -9.894531 10.957031 -9.226562 11.4375 -8.375 C 11.925781 -7.53125 12.171875 -6.546875 12.171875 -5.421875 C 12.171875 -4.296875 11.925781 -3.304688 11.4375 -2.453125 C 10.957031 -1.609375 10.289062 -0.941406 9.4375 -0.453125 C 8.59375 0.0234375 7.65625 0.265625 6.625 0.265625 Z M 6.625 -2.171875 C 7.351562 -2.171875 7.984375 -2.441406 8.515625 -2.984375 C 9.054688 -3.523438 9.328125 -4.335938 9.328125 -5.421875 C 9.328125 -6.492188 9.054688 -7.300781 8.515625 -7.84375 C 7.984375 -8.394531 7.359375 -8.671875 6.640625 -8.671875 C 5.898438 -8.671875 5.265625 -8.394531 4.734375 -7.84375 C 4.203125 -7.300781 3.9375 -6.492188 3.9375 -5.421875 C 3.9375 -4.335938 4.203125 -3.523438 4.734375 -2.984375 C 5.265625 -2.441406 5.894531 -2.171875 6.625 -2.171875 Z M 6.625 -2.171875 "/></g></g></g><g fill="#ffffff" fill-opacity="1"><g transform="translate(265.546103, 364.008492)"><g><path d="M 6.015625 -3.234375 C 5.484375 -3.234375 4.992188 -3.289062 4.546875 -3.40625 L 3.734375 -2.59375 C 3.984375 -2.46875 4.316406 -2.359375 4.734375 -2.265625 C 5.160156 -2.179688 5.847656 -2.097656 6.796875 -2.015625 C 8.242188 -1.878906 9.296875 -1.535156 9.953125 -0.984375 C 10.609375 -0.429688 10.9375 0.332031 10.9375 1.3125 C 10.9375 1.945312 10.757812 2.550781 10.40625 3.125 C 10.050781 3.707031 9.507812 4.175781 8.78125 4.53125 C 8.050781 4.894531 7.117188 5.078125 5.984375 5.078125 C 4.441406 5.078125 3.195312 4.785156 2.25 4.203125 C 1.300781 3.628906 0.828125 2.769531 0.828125 1.625 C 0.828125 0.644531 1.300781 -0.203125 2.25 -0.921875 C 1.957031 -1.046875 1.707031 -1.179688 1.5 -1.328125 C 1.289062 -1.472656 1.101562 -1.628906 0.9375 -1.796875 L 0.9375 -2.296875 L 2.84375 -4.3125 C 2 -5.050781 1.578125 -6.003906 1.578125 -7.171875 C 1.578125 -7.898438 1.753906 -8.5625 2.109375 -9.15625 C 2.460938 -9.757812 2.96875 -10.234375 3.625 -10.578125 C 4.28125 -10.929688 5.078125 -11.109375 6.015625 -11.109375 C 6.617188 -11.109375 7.1875 -11.019531 7.71875 -10.84375 L 11.828125 -10.84375 L 11.828125 -9.140625 L 9.96875 -9 C 10.257812 -8.445312 10.40625 -7.835938 10.40625 -7.171875 C 10.40625 -6.441406 10.226562 -5.773438 9.875 -5.171875 C 9.53125 -4.578125 9.023438 -4.101562 8.359375 -3.75 C 7.691406 -3.40625 6.910156 -3.234375 6.015625 -3.234375 Z M 6.015625 -5.375 C 6.578125 -5.375 7.046875 -5.523438 7.421875 -5.828125 C 7.796875 -6.140625 7.984375 -6.578125 7.984375 -7.140625 C 7.984375 -7.710938 7.796875 -8.148438 7.421875 -8.453125 C 7.046875 -8.765625 6.578125 -8.921875 6.015625 -8.921875 C 5.410156 -8.921875 4.925781 -8.765625 4.5625 -8.453125 C 4.195312 -8.148438 4.015625 -7.710938 4.015625 -7.140625 C 4.015625 -6.578125 4.195312 -6.140625 4.5625 -5.828125 C 4.925781 -5.523438 5.410156 -5.375 6.015625 -5.375 Z M 3.390625 1.328125 C 3.390625 1.867188 3.640625 2.273438 4.140625 2.546875 C 4.640625 2.816406 5.253906 2.953125 5.984375 2.953125 C 6.679688 2.953125 7.25 2.804688 7.6875 2.515625 C 8.125 2.234375 8.34375 1.851562 8.34375 1.375 C 8.34375 0.976562 8.203125 0.648438 7.921875 0.390625 C 7.640625 0.128906 7.078125 -0.03125 6.234375 -0.09375 C 5.628906 -0.132812 5.070312 -0.195312 4.5625 -0.28125 C 4.144531 -0.0507812 3.84375 0.195312 3.65625 0.46875 C 3.476562 0.75 3.390625 1.035156 3.390625 1.328125 Z M 3.390625 1.328125 "/></g></g></g><g fill="#ffffff" fill-opacity="1"><g transform="translate(280.642369, 364.008492)"><g><path d="M 2.921875 -12.53125 C 2.421875 -12.53125 2.003906 -12.679688 1.671875 -12.984375 C 1.347656 -13.285156 1.1875 -13.671875 1.1875 -14.140625 C 1.1875 -14.609375 1.347656 -14.988281 1.671875 -15.28125 C 2.003906 -15.582031 2.421875 -15.734375 2.921875 -15.734375 C 3.429688 -15.734375 3.847656 -15.582031 4.171875 -15.28125 C 4.503906 -14.988281 4.671875 -14.609375 4.671875 -14.140625 C 4.671875 -13.671875 4.503906 -13.285156 4.171875 -12.984375 C 3.847656 -12.679688 3.429688 -12.53125 2.921875 -12.53125 Z M 1.53125 0 L 1.53125 -10.84375 L 4.328125 -10.84375 L 4.328125 0 Z M 1.53125 0 "/></g></g></g><g fill="#ffffff" fill-opacity="1"><g transform="translate(289.141827, 364.008492)"><g><path d="M 6.6875 0.265625 C 5.59375 0.265625 4.625 0.03125 3.78125 -0.4375 C 2.9375 -0.90625 2.273438 -1.5625 1.796875 -2.40625 C 1.316406 -3.25 1.078125 -4.222656 1.078125 -5.328125 C 1.078125 -6.453125 1.3125 -7.453125 1.78125 -8.328125 C 2.25 -9.203125 2.898438 -9.882812 3.734375 -10.375 C 4.578125 -10.863281 5.566406 -11.109375 6.703125 -11.109375 C 7.773438 -11.109375 8.71875 -10.875 9.53125 -10.40625 C 10.34375 -9.9375 10.976562 -9.296875 11.4375 -8.484375 C 11.894531 -7.679688 12.125 -6.785156 12.125 -5.796875 C 12.125 -5.628906 12.117188 -5.457031 12.109375 -5.28125 C 12.109375 -5.113281 12.101562 -4.9375 12.09375 -4.75 L 3.84375 -4.75 C 3.90625 -3.894531 4.203125 -3.226562 4.734375 -2.75 C 5.265625 -2.269531 5.910156 -2.03125 6.671875 -2.03125 C 7.234375 -2.03125 7.707031 -2.15625 8.09375 -2.40625 C 8.476562 -2.664062 8.769531 -3 8.96875 -3.40625 L 11.796875 -3.40625 C 11.597656 -2.71875 11.257812 -2.09375 10.78125 -1.53125 C 10.3125 -0.976562 9.726562 -0.539062 9.03125 -0.21875 C 8.34375 0.101562 7.5625 0.265625 6.6875 0.265625 Z M 6.703125 -8.828125 C 6.023438 -8.828125 5.421875 -8.632812 4.890625 -8.25 C 4.367188 -7.863281 4.035156 -7.28125 3.890625 -6.5 L 9.296875 -6.5 C 9.242188 -7.207031 8.976562 -7.769531 8.5 -8.1875 C 8.019531 -8.613281 7.421875 -8.828125 6.703125 -8.828125 Z M 6.703125 -8.828125 "/></g></g></g><g fill="#ffffff" fill-opacity="1"><g transform="translate(304.871547, 364.008492)"><g><path d="M 5.90625 0.265625 C 4.9375 0.265625 4.085938 0.109375 3.359375 -0.203125 C 2.628906 -0.515625 2.046875 -0.945312 1.609375 -1.5 C 1.179688 -2.0625 0.921875 -2.707031 0.828125 -3.4375 L 3.65625 -3.4375 C 3.738281 -3.007812 3.972656 -2.644531 4.359375 -2.34375 C 4.742188 -2.050781 5.242188 -1.90625 5.859375 -1.90625 C 6.472656 -1.90625 6.921875 -2.023438 7.203125 -2.265625 C 7.484375 -2.515625 7.625 -2.800781 7.625 -3.125 C 7.625 -3.59375 7.421875 -3.910156 7.015625 -4.078125 C 6.609375 -4.242188 6.039062 -4.40625 5.3125 -4.5625 C 4.84375 -4.664062 4.367188 -4.789062 3.890625 -4.9375 C 3.410156 -5.082031 2.96875 -5.269531 2.5625 -5.5 C 2.164062 -5.726562 1.84375 -6.019531 1.59375 -6.375 C 1.34375 -6.726562 1.21875 -7.164062 1.21875 -7.6875 C 1.21875 -8.65625 1.597656 -9.46875 2.359375 -10.125 C 3.128906 -10.78125 4.207031 -11.109375 5.59375 -11.109375 C 6.875 -11.109375 7.894531 -10.804688 8.65625 -10.203125 C 9.425781 -9.609375 9.882812 -8.785156 10.03125 -7.734375 L 7.390625 -7.734375 C 7.222656 -8.535156 6.617188 -8.9375 5.578125 -8.9375 C 5.046875 -8.9375 4.640625 -8.832031 4.359375 -8.625 C 4.078125 -8.425781 3.9375 -8.175781 3.9375 -7.875 C 3.9375 -7.550781 4.144531 -7.289062 4.5625 -7.09375 C 4.988281 -6.90625 5.550781 -6.734375 6.25 -6.578125 C 7.007812 -6.398438 7.707031 -6.207031 8.34375 -6 C 8.976562 -5.789062 9.484375 -5.476562 9.859375 -5.0625 C 10.234375 -4.644531 10.421875 -4.050781 10.421875 -3.28125 C 10.441406 -2.601562 10.269531 -1.992188 9.90625 -1.453125 C 9.539062 -0.921875 9.015625 -0.5 8.328125 -0.1875 C 7.640625 0.113281 6.832031 0.265625 5.90625 0.265625 Z M 5.90625 0.265625 "/></g></g></g></svg>